<svg width="18" height="14" viewBox="0 0 18 14" fill="none">
    <path fill-rule="evenodd" clip-rule="evenodd" d="M8.73717 0.115497C4.87842 0.115497 1.75 3.24333 1.75 7.10266C1.75 10.1891 3.752 12.8082 6.52808 13.7322C6.8775 13.797 7.00525 13.5806 7.00525 13.3962C7.00525 13.23 6.99942 12.6787 6.99592 12.0954C5.05225 12.5183 4.64217 11.2712 4.64217 11.2712C4.32425 10.4638 3.86633 10.2486 3.86633 10.2486C3.23225 9.81516 3.91417 9.82391 3.91417 9.82391C4.61592 9.8735 4.98517 10.5443 4.98517 10.5443C5.60817 11.6118 6.61967 11.3032 7.01808 11.1247C7.08108 10.6732 7.26192 10.3652 7.462 10.1902C5.91033 10.0141 4.27875 9.41441 4.27875 6.7375C4.27875 5.9745 4.55175 5.3515 4.99858 4.86208C4.92625 4.68591 4.68708 3.97541 5.06625 3.01291C5.06625 3.01291 5.65308 2.82508 6.98833 3.72925C7.54542 3.57466 8.14333 3.49708 8.73717 3.49416C9.331 3.49708 9.92892 3.57466 10.4872 3.72925C11.8207 2.82508 12.4063 3.01291 12.4063 3.01291C12.7872 3.97541 12.5481 4.68591 12.4757 4.86208C12.9237 5.3515 13.1944 5.9745 13.1944 6.7375C13.1944 9.42083 11.5599 10.0117 10.0036 10.185C10.2544 10.402 10.4778 10.8267 10.4778 11.4788C10.4778 12.4139 10.4703 13.1664 10.4703 13.3962C10.4703 13.5823 10.5957 13.7999 10.9497 13.7317C13.7247 12.8065 15.7243 10.1885 15.7243 7.10266C15.7243 3.24333 12.5959 0.114914 8.73717 0.114914" fill="white"/>
    <path fill-rule="evenodd" clip-rule="evenodd" d="M4.39659 10.1477C4.38084 10.1827 4.32659 10.1926 4.27643 10.1687C4.22568 10.1459 4.19768 10.0987 4.21401 10.0637C4.22918 10.0287 4.28401 10.0182 4.33418 10.0421C4.38493 10.0648 4.41409 10.1121 4.39659 10.1471V10.1477ZM4.67951 10.4632C4.64626 10.4942 4.58034 10.4796 4.53659 10.4306C4.49109 10.3822 4.48234 10.3168 4.51618 10.2859C4.55118 10.255 4.61359 10.269 4.65968 10.318C4.70518 10.367 4.71451 10.4317 4.67951 10.4632ZM4.95484 10.8658C4.91226 10.8949 4.84168 10.8675 4.79851 10.8051C4.75593 10.7432 4.75593 10.6686 4.79968 10.6388C4.84284 10.6091 4.91226 10.6359 4.95601 10.6972C4.99859 10.7607 4.99859 10.8348 4.95484 10.8658ZM5.33226 11.2542C5.29376 11.2962 5.21268 11.2852 5.15259 11.2274C5.09134 11.1714 5.07443 11.0915 5.11293 11.0489C5.15201 11.0069 5.23368 11.0186 5.29376 11.0757C5.35443 11.1317 5.37309 11.2122 5.33226 11.2542ZM5.85318 11.48C5.83568 11.5348 5.75751 11.5593 5.67818 11.536C5.59943 11.5127 5.54751 11.4485 5.56384 11.3931C5.58018 11.3377 5.65893 11.312 5.73884 11.3371C5.81759 11.3604 5.86951 11.4246 5.85318 11.48ZM6.42484 11.522C6.42659 11.5798 6.35951 11.627 6.27668 11.6282C6.19326 11.6305 6.12501 11.5832 6.12443 11.5267C6.12443 11.4683 6.19034 11.4217 6.27376 11.4199C6.35659 11.4182 6.42484 11.4648 6.42484 11.522ZM6.95684 11.4316C6.96676 11.4876 6.90901 11.5453 6.82676 11.5605C6.74509 11.5757 6.67043 11.5407 6.65993 11.4847C6.65001 11.4275 6.70893 11.3697 6.79001 11.3546C6.87226 11.3406 6.94634 11.3744 6.95684 11.4316Z" fill="white"/>
</svg>
