<svg width="20" height="14" viewBox="0 0 20 14" fill="none">
    <path fill-rule="evenodd" clip-rule="evenodd" d="M17 8.202V13.378H13.9993V8.54867C13.9993 7.33533 13.5653 6.50733 12.4793 6.50733C11.65 6.50733 11.1567 7.06533 10.9393 7.60533C10.8607 7.79867 10.84 8.06667 10.84 8.33667V13.378H7.83867C7.83867 13.378 7.87867 5.19867 7.83867 4.35133H10.84V5.63067L10.82 5.66H10.84V5.63067C11.2387 5.01667 11.9507 4.13933 13.5447 4.13933C15.5193 4.13933 17 5.42933 17 8.202ZM4.69867 0C3.672 0 3 0.673333 3 1.55933C3 2.426 3.652 3.11933 4.65867 3.11933H4.67867C5.72533 3.11933 6.37667 2.426 6.37667 1.55933C6.35667 0.673333 5.72533 0 4.69867 0ZM3.17867 13.378H6.17867V4.35133H3.17867V13.378Z" fill="white"/>
</svg>
