<svg width="24" height="24" viewBox="0 0 24 24" fill="none">
    <g clip-path="url(#clip0)">
        <path d="M23.896 12.0027C23.896 10.4151 21.9138 8.912 18.8738 7.97867C19.576 4.87378 19.2649 2.40267 17.8907 1.61155C17.5742 1.42578 17.2036 1.33778 16.7991 1.33778V2.42667C17.024 2.42667 17.2036 2.47111 17.3547 2.55378C18.0169 2.93511 18.3049 4.38489 18.0809 6.25067C18.0276 6.70933 17.9387 7.19289 17.832 7.68622C16.8773 7.45155 15.8347 7.27111 14.7387 7.15378C14.0809 6.25067 13.4 5.42933 12.7129 4.712C14.3004 3.23289 15.7911 2.42222 16.8044 2.42222V1.33333C15.4649 1.33333 13.7111 2.29067 11.9387 3.95022C10.1653 2.30044 8.41156 1.35289 7.07289 1.35289V2.44178C8.08089 2.44178 9.576 3.24711 11.1636 4.71733C10.4818 5.43467 9.8 6.25067 9.152 7.15378C8.05156 7.27111 7.00978 7.45155 6.05422 7.69067C5.94222 7.20178 5.85956 6.72889 5.80089 6.27467C5.57244 4.40978 5.85422 2.95911 6.512 2.57333C6.65867 2.48533 6.848 2.44622 7.072 2.44622V1.35733C6.66311 1.35733 6.29333 1.44622 5.97156 1.63111C4.60267 2.42222 4.296 4.888 5.00267 7.984C1.97244 8.92178 0 10.4196 0 12.0018C0 13.5893 1.98222 15.0933 5.02222 16.0258C4.32 19.1316 4.632 21.6018 6.00533 22.3929C6.32267 22.5796 6.69244 22.6667 7.10133 22.6667C8.44089 22.6667 10.1947 21.7093 11.968 20.0498C13.7404 21.6996 15.4942 22.6471 16.8338 22.6471C17.2427 22.6471 17.6133 22.5591 17.9342 22.3733C19.3031 21.5822 19.6098 19.1164 18.9031 16.0213C21.9236 15.088 23.896 13.5849 23.896 12.0027ZM17.5556 8.74578C17.3751 9.37511 17.1511 10.0249 16.8978 10.6747C16.6978 10.2836 16.4889 9.89244 16.2596 9.50222C16.0356 9.11111 15.7973 8.73067 15.5582 8.36C16.2498 8.46222 16.9173 8.58933 17.5556 8.74578ZM15.3244 13.9458C14.9449 14.6053 14.5547 15.2302 14.1511 15.8107C13.4249 15.8747 12.6898 15.9084 11.9493 15.9084C11.2133 15.9084 10.4782 15.8747 9.75733 15.816C9.35289 15.2347 8.95822 14.6151 8.57867 13.9609C8.208 13.3209 7.872 12.672 7.56533 12.0169C7.86756 11.3627 8.208 10.7084 8.57333 10.0684C8.95378 9.40978 9.34311 8.78489 9.74667 8.20355C10.4729 8.14044 11.2089 8.10578 11.9493 8.10578C12.6844 8.10578 13.4204 8.14044 14.1413 8.19911C14.5449 8.77955 14.9396 9.39911 15.32 10.0542C15.6898 10.6942 16.0258 11.3431 16.3333 11.9973C16.0258 12.6516 15.6898 13.3058 15.3244 13.9458ZM16.8978 13.3111C17.1609 13.9653 17.3849 14.6196 17.5698 15.2542C16.9316 15.4107 16.2596 15.5422 15.5636 15.6453C15.8018 15.2693 16.0409 14.8836 16.2649 14.488C16.4889 14.0969 16.6978 13.7013 16.8978 13.3111ZM11.9591 18.5209C11.5058 18.0524 11.0524 17.5298 10.6044 16.9582C11.0427 16.9778 11.4916 16.9929 11.944 16.9929C12.4018 16.9929 12.8551 16.9831 13.2987 16.9582C12.8596 17.5298 12.4071 18.0516 11.9591 18.5209ZM8.33511 15.6453C7.64356 15.5422 6.97511 15.416 6.33778 15.2596C6.51822 14.6293 6.74222 13.9796 6.99556 13.3307C7.19556 13.7218 7.40444 14.112 7.63378 14.5022C7.86222 14.8933 8.096 15.2738 8.33511 15.6453ZM11.9351 5.48355C12.3876 5.95289 12.84 6.47467 13.2889 7.04622C12.8498 7.02667 12.4018 7.01244 11.9493 7.01244C11.4916 7.01244 11.0382 7.02133 10.5947 7.04622C11.0338 6.47467 11.4862 5.95289 11.9342 5.48355H11.9351ZM8.32889 8.36C8.09067 8.736 7.85156 9.12178 7.62756 9.51733C7.40356 9.90844 7.19467 10.2987 6.99467 10.6889C6.73156 10.0347 6.50756 9.38044 6.32267 8.74578C6.96 8.59467 7.63289 8.46222 8.32889 8.36ZM3.92089 14.4729C2.19644 13.7351 1.08089 12.7689 1.08089 12.0018C1.08089 11.2356 2.19644 10.264 3.92089 9.53155C4.33956 9.35111 4.79822 9.19022 5.27022 9.03822C5.54756 9.99555 5.91289 10.992 6.36622 12.0124C5.91822 13.0276 5.55733 14.0187 5.28444 14.9716C4.80267 14.8204 4.34489 14.6542 3.92089 14.4738V14.4729ZM6.54133 21.4507C5.87911 21.0702 5.592 19.6196 5.816 17.7547C5.86933 17.2951 5.95733 16.8124 6.06489 16.3191C7.01867 16.5529 8.06133 16.7342 9.15733 16.8516C9.81511 17.7547 10.4969 18.5751 11.184 19.2924C9.59556 20.7724 8.10489 21.5822 7.09156 21.5822C6.87289 21.5778 6.688 21.5342 6.54133 21.4507ZM18.0951 17.7298C18.3244 19.5956 18.0418 21.0453 17.384 21.4311C17.2382 21.52 17.048 21.5582 16.824 21.5582C15.816 21.5582 14.32 20.7529 12.7324 19.2827C13.4142 18.5653 14.096 17.7493 14.744 16.8462C15.8444 16.7289 16.8871 16.5484 17.8418 16.3093C17.9538 16.8027 18.0418 17.2756 18.0951 17.7298ZM19.9707 14.4729C19.552 14.6542 19.0933 14.8151 18.6213 14.9662C18.344 14.0089 17.9787 13.0133 17.5253 11.9929C17.9733 10.9769 18.3342 9.98578 18.6062 9.03289C19.0889 9.18489 19.5467 9.35111 19.9751 9.53155C21.6996 10.2693 22.8151 11.2356 22.8151 12.0027C22.8098 12.7689 21.6951 13.7404 19.9707 14.4738V14.4729Z" fill="#ABAEC7" fill-opacity="0.6"/>
        <path d="M11.9484 14.224C13.1767 14.224 14.1724 13.2283 14.1724 12C14.1724 10.7717 13.1767 9.776 11.9484 9.776C10.7202 9.776 9.72444 10.7717 9.72444 12C9.72444 13.2283 10.7202 14.224 11.9484 14.224Z" fill="#ABAEC7" fill-opacity="0.6"/>
    </g>
    <defs>
        <clipPath id="clip0">
            <rect width="24" height="24" fill="white"/>
        </clipPath>
    </defs>
</svg>
